<?xml version="1.0" standalone="no"?><!DOCTYPE svg PUBLIC "-//W3C//DTD SVG 1.1//EN" "http://www.w3.org/Graphics/SVG/1.1/DTD/svg11.dtd"><svg t="1657853069953" class="icon" viewBox="0 0 1024 1024" version="1.1" xmlns="http://www.w3.org/2000/svg" p-id="2849" xmlns:xlink="http://www.w3.org/1999/xlink" width="200" height="200"><defs><style type="text/css"></style></defs><path d="M854.584889 370.602667c-9.898667-39.395556 9.927111-102.200889 73.415111-124.416l-67.896889-3.584s-25.713778-89.998222-143.616-97.991111c-117.902222-8.106667-194.986667-3.015111-194.986667-3.015112s87.409778 55.608889 52.394667 154.709334c-25.6 52.48-65.792 95.573333-108.8 144.696889a110.449778 110.449778 0 0 0-3.498667 3.697777c-142.222222 160.312889-365.596444 415.288889-365.596444 415.288889 245.902222 64.398222 410.709333-6.286222 508.188444-91.079111 20.508444-0.199111 35.896889-0.312889 46.307556-0.312889 135.793778 0 250.595556-117.589333 245.902222-248.405333-3.185778-89.884444-31.886222-110.193778-41.813333-149.617778z" fill="#B1B4BD" p-id="2850"></path></svg>